<?xml version="1.0" encoding="UTF-8"?><svg id="Layer_2" xmlns="http://www.w3.org/2000/svg" viewBox="0 0 173.1 105.5"><defs><style>.cls-1{fill:#fff;}</style></defs><g id="Layer_1-2"><path id="_000000" class="cls-1" d="M64.6,40l5.4-9.4,5.4-9.4,5.4,9.4,5.4,9.4h-21.8.2ZM86.4,40h21.8l-5.4-9.4-5.4-9.4-5.4,9.4-5.4,9.4h-.2ZM97.3,21.3l-5.4-9.4-5.4-9.4-5.4,9.4-5.4,9.4h21.8-.2ZM106.3,80.3l-1.9-11.3-4.5-1.7-2.5,2.8,4.6,10.9-1.2,5.9,6.8,5.3-1.6-7.1,13.3,2.5-4.6,17.7,11.1-16.8v-4.9l-3.7-3-15.9-.5.1.2ZM72.9,67.3l-4.5,1.7-1.9,11.3-15.9.5-3.7,3v4.9l11.1,16.8-4.6-17.7,13.3-2.5-1.6,7.1,6.8-5.3-1.2-5.9,4.6-10.9-2.5-2.8.1-.2ZM96.8,63.8l-10.4-18.3-10.4,18.3s5.9,3.8,7.5,7.7v3.3l-3.3,3.8,6.1,22.3,6.1-22.3-3.3-3.8v-3.3c1.6-3.9,7.5-7.7,7.5-7.7h.2ZM172.9,0l-59.9,12.4c-2.7-3.1-6.1-5.7-9.9-7.7,7.3,5.1,12.1,13.5,12.1,22.9s-7.4,21.9-17.9,26.1l2.9,5.1c1-.4,2-.9,3-1.3l7.4,14,12.5-4.2-15-12.9c2.4-1.8,4.6-3.9,6.3-6.3l20.3,14,16.1-10.5-32.5-10.4c1-2.5,1.6-5.2,1.9-7.9l38.3,10.3,11-17.8-49.6.6c-.4-2.2-1-4.3-1.9-6.4l55.1-3.9V0h-.2ZM57.7,27.6c0-9.5,4.8-17.8,12.1-22.9-3.9,2-7.2,4.6-9.9,7.7L0,0v16.1l55.1,3.9c-.9,2-1.5,4.2-1.9,6.4l-49.6-.6,11,17.8,38.3-10.3c.2,2.8.9,5.4,1.9,7.9l-32.5,10.4,16.1,10.5,20.3-14c1.8,2.3,3.9,4.5,6.3,6.3l-15,12.9,12.5,4.2,7.4-14c1,.5,1.9.9,3,1.3l2.9-5.1c-10.5-4.2-17.9-14.3-17.9-26.1h-.2Z"/></g></svg>